<svg width="20" height="14" fill="none" xmlns="http://www.w3.org/2000/svg"><g clip-path="url(#a)"><path d="M.714 1.61h18.572c.394 0 .714-.196.714-.438V.078c0-.242-.32-.437-.714-.437H.714C.32-.36 0-.164 0 .078v1.094c0 .242.32.437.714.437Zm0 6.374h18.572c.394 0 .714-.195.714-.437V6.453c0-.242-.32-.437-.714-.437H.714C.32 6.016 0 6.21 0 6.453v1.094c0 .242.32.437.714.437Zm0 6.375h18.572c.394 0 .714-.195.714-.437v-1.094c0-.242-.32-.437-.714-.437H.714c-.394 0-.714.195-.714.437v1.094c0 .242.32.437.714.437Z" fill="#fff"/></g><defs><clipPath id="a"><path fill="#fff" d="M0 0h20v14H0z"/></clipPath></defs></svg>