<svg xmlns="http://www.w3.org/2000/svg" width="478" height="478" fill="none"><g clip-path="url(#a)" transform="scale(1 1.02647)"><path d="M220.608 476.726c-.524-.152-3.154-.767-5.845-1.369-2.692-.6-5.068-1.362-5.281-1.692-.213-.33-1.042-8.819-1.842-18.863-.8-10.046-1.523-18.628-1.605-19.07-.12-.637-1.368-1.055-6.016-2.01-7.69-1.582-18.241-4.525-25.557-7.13-3.231-1.15-6.054-1.94-6.274-1.754-.22.185-5.286 6.984-11.26 15.11-5.973 8.124-11.134 15.008-11.467 15.297-.471.408-1.817.134-6.01-1.224-16.038-5.194-30.809-14.01-41.231-24.609l-2.494-2.536 8.268-17.428c4.546-9.585 8.28-17.569 8.298-17.741.017-.172-1.436-1.552-3.23-3.066-6.18-5.216-14.335-13.512-22.623-23.012l-1.582-1.813-17.754 7.725c-16.773 7.299-17.806 7.678-18.72 6.887-.533-.46-2.804-2.914-5.047-5.452-9.754-11.037-17.996-26.075-21.723-39.637l-1.05-3.823 1.317-.858c.724-.472 7.92-5.344 15.992-10.826 11.559-7.851 14.657-10.177 14.588-10.956-.049-.544-1.016-3.729-2.15-7.078-2.399-7.087-5.296-18.229-6.502-25.006l-.845-4.745-6.518-1c-3.585-.55-12.362-1.61-19.505-2.358l-12.986-1.36-1.364-6.384C1.002 251.51.061 242.91.003 235.299c-.064-8.345 2.63-25.58 4.21-26.934.258-.22 9.077-1.062 19.598-1.87l19.129-1.47.72-3.59c1.99-9.906 6.794-27.021 9.278-33.045.337-.818-1.645-2.446-15.352-12.621l-15.738-11.683.489-1.907c1.012-3.946 4.988-14.39 7.178-18.854 4.664-9.51 12.93-21.154 18.9-26.622l2.146-1.966 17.285 8.282c9.506 4.556 17.484 8.304 17.73 8.33.244.025 1.98-1.72 3.858-3.88 5.146-5.92 11.942-12.679 18.284-18.185 5.185-4.502 5.65-5.04 5.24-6.06-.25-.617-3.76-8.695-7.802-17.953L97.808 48.44l2.074-2.065c10.168-10.124 25.482-19.462 39.36-24.002 8.824-2.885 6.585-4.51 19.313 14.014l11.04 16.065 4.343-1.485c8.802-3.007 23.034-6.616 30.982-7.855l2.038-.318.781-4.692c.43-2.58 1.438-11.298 2.24-19.372l1.46-14.68 1.78-.536c8.64-2.599 22.11-3.962 33.363-3.377 8.426.438 21.339 3.076 22.033 4.501.142.29.929 8.925 1.748 19.188.82 10.263 1.617 18.818 1.772 19.012.155.192 2.656.847 5.557 1.455 7.638 1.598 19.014 4.745 25.827 7.143 3.254 1.145 5.967 2.087 6.03 2.094.064.007 5.308-7.026 11.655-15.629 11.51-15.6 11.543-15.64 12.969-15.239 12.599 3.54 26.832 10.58 36.498 18.056 4.483 3.468 10.92 9.427 11.171 10.342.1.36-3.46 8.343-7.911 17.737-4.45 9.395-8.109 17.256-8.13 17.47-.021.213 1.43 1.626 3.223 3.14 4.714 3.98 13.612 12.799 18.073 17.914 2.12 2.428 4.366 4.973 4.995 5.655l1.143 1.238 17.791-7.705 17.791-7.705 2.055 2.05c3.357 3.347 10.192 11.928 13.09 16.432 5.492 8.53 10.679 20.119 12.758 28.504l.685 2.763-16.117 11.014-16.117 11.012 2.168 6.43c2.47 7.317 5.265 17.944 6.75 25.645.556 2.885 1.104 5.366 1.218 5.512.114.147 8.83 1.279 19.37 2.517l19.165 2.25.881 3.03c1.526 5.25 3.149 17.681 3.274 25.083.17 10.05-2.384 27.18-4.282 28.724-.332.27-8.814 1.101-18.85 1.849-10.035.747-18.607 1.424-19.05 1.503-.635.113-1.045 1.358-1.975 6.006-1.539 7.686-4.423 18.228-6.987 25.533-1.132 3.228-1.905 6.038-1.717 6.246.187.208 7.011 5.311 15.162 11.34 8.153 6.03 15.06 11.241 15.35 11.58.41.481.143 1.824-1.193 6.016-3.12 9.793-8.103 20.243-13.14 27.56-4.455 6.468-12.826 15.79-14.062 15.66-.312-.032-8.195-3.72-17.517-8.197-9.323-4.476-17.112-8.154-17.31-8.174-.197-.022-2.338 2.207-4.756 4.951-4.728 5.367-12.166 12.728-18.878 18.685l-4.178 3.707 7.804 17.817 7.803 17.815-2.042 2.05c-3.332 3.343-11.869 10.135-16.356 13.013-8.504 5.453-20.096 10.595-28.418 12.605l-2.758.666-10.463-15.245c-5.755-8.385-10.81-15.63-11.233-16.099-.707-.786-1.244-.699-6.734 1.093-9.004 2.94-21.839 6.12-29.063 7.202-1.847.277-2.094.48-2.527 2.09-.263.981-1.267 9.7-2.23 19.374l-1.75 17.59-2.217.717c-3.477 1.124-14.438 2.804-20.934 3.205-5.369.333-20.288-.45-22.887-1.201zm21.809-106.41c29.785-.777 57.25-10.864 79.77-29.298 31.532-25.808 49.015-63.886 48.018-104.585-.597-24.396-8.03-48.235-21.564-69.158-3.705-5.727-12.312-16.283-17.177-21.065-21.995-21.619-49.24-34.534-79.48-37.676-35.255-3.662-68.776 6.293-96.08 28.534-22.413 18.258-37.136 41.59-44.474 70.486-2.292 9.027-3.972 24.705-3.633 33.888.794 21.425 5.752 40.357 15.291 58.386 4.658 8.803 8.247 14.224 14.474 21.86 20.458 25.088 47.796 40.97 81.026 47.073 4.48.823 18.02 1.706 23.829 1.555z" fill="#fff" fill-opacity=".04" style="stroke-width:1.01147"/></g><defs><clipPath id="a"><path fill="#fff" transform="translate(.022 .321)" d="M0 0h477.957v465.357H0z"/></clipPath></defs></svg>