<svg width="34" height="34" fill="none" xmlns="http://www.w3.org/2000/svg"><g clip-path="url(#a)"><path d="M14.567 29.785 31.087.817 34 2.218l-17.523 30.91-1.91-3.343Zm-3.63-6.53L24.096.11s3.007-.256 3.798.01C22.755 8.991 12.81 26.703 12.81 26.703l-1.874-3.45ZM0 4.124s.252.104.524.23c1.033.477 2.237.844 3.483 1.06l.604.106 6.434 11.322-1.881 3.29L0 4.126Zm8.24 1.528s.477-.07 1.034-.13c.557-.061 1.3-.181 1.65-.267.351-.086.724-.157.724-.157l3.039 5.267-1.878 3.362-4.57-8.075Z" fill="#F57500"/></g><defs><clipPath id="a"><path fill="#fff" d="M0 0h34v33.128H0z"/></clipPath></defs></svg>