<svg width="20" height="14" viewBox="0 0 20 14" fill="none" xmlns="http://www.w3.org/2000/svg">
<g clip-path="url(#clip0)">
<path d="M0.714286 1.60938H19.2857C19.6802 1.60938 20 1.41351 20 1.17188V0.078125C20 -0.163512 19.6802 -0.359375 19.2857 -0.359375H0.714286C0.319777 -0.359375 0 -0.163512 0 0.078125V1.17188C0 1.41351 0.319777 1.60938 0.714286 1.60938ZM0.714286 7.98438H19.2857C19.6802 7.98438 20 7.78851 20 7.54688V6.45312C20 6.21149 19.6802 6.01562 19.2857 6.01562H0.714286C0.319777 6.01562 0 6.21149 0 6.45312V7.54688C0 7.78851 0.319777 7.98438 0.714286 7.98438ZM0.714286 14.3594H19.2857C19.6802 14.3594 20 14.1635 20 13.9219V12.8281C20 12.5865 19.6802 12.3906 19.2857 12.3906H0.714286C0.319777 12.3906 0 12.5865 0 12.8281V13.9219C0 14.1635 0.319777 14.3594 0.714286 14.3594Z" fill="white"/>
</g>
<defs>
<clipPath id="clip0">
<rect width="20" height="14" fill="white"/>
</clipPath>
</defs>
</svg>
