<?xml version="1.0" encoding="UTF-8" standalone="no"?>
<svg
   xmlns:dc="http://purl.org/dc/elements/1.1/"
   xmlns:cc="http://creativecommons.org/ns#"
   xmlns:rdf="http://www.w3.org/1999/02/22-rdf-syntax-ns#"
   xmlns:svg="http://www.w3.org/2000/svg"
   xmlns="http://www.w3.org/2000/svg"
   width="478"
   height="478"
   viewBox="0 0 478 478"
   fill="none"
   version="1.1"
   id="svg11">
  <metadata
     id="metadata15">
    <rdf:RDF>
      <cc:Work
         rdf:about="">
        <dc:format>image/svg+xml</dc:format>
        <dc:type
           rdf:resource="http://purl.org/dc/dcmitype/StillImage" />
        <dc:title></dc:title>
      </cc:Work>
    </rdf:RDF>
  </metadata>
  <g
     clip-path="url(#clip0)"
     id="g4"
     transform="matrix(1,0,0,1.0264747,0,-5.4026381e-5)">
    <path
       d="m 220.60771,476.72596 c -0.52392,-0.15173 -3.15348,-0.76684 -5.84492,-1.36861 -2.69143,-0.60077 -5.06753,-1.36247 -5.28108,-1.69257 -0.21257,-0.32908 -1.04184,-8.81858 -1.84219,-18.86326 -0.80034,-10.04571 -1.52286,-18.62747 -1.60469,-19.06932 -0.11975,-0.63766 -1.36817,-1.05491 -6.01556,-2.01037 -7.6911,-1.58186 -18.24128,-4.52514 -25.55716,-7.13011 -3.23131,-1.15024 -6.05448,-1.93963 -6.27402,-1.75408 -0.21955,0.18556 -5.28608,6.98454 -11.25973,15.11009 -5.97364,8.12452 -11.13397,15.00859 -11.46729,15.29769 -0.47103,0.40802 -1.81724,0.13328 -6.01057,-1.22406 -16.03784,-5.19457 -30.8083,-14.01007 -41.230754,-24.60938 l -2.493945,-2.53629 8.268009,-17.428 c 4.5466,-9.58438 8.28088,-17.56846 8.29784,-17.74069 0.017,-0.17222 -1.43603,-1.55211 -3.22932,-3.06631 -6.18022,-5.21609 -14.335464,-13.51182 -22.623827,-23.01215 l -1.581929,-1.8125 -17.753096,7.7247 c -16.77322,7.29926 -17.806584,7.67858 -18.721293,6.88714 -0.532499,-0.4603 -2.803304,-2.91355 -5.046267,-5.45189 -9.754232,-11.03705 -17.995893,-26.07537 -21.722787,-39.63744 l -1.050428,-3.82288 1.316878,-0.85807 c 0.724202,-0.47159 7.920723,-5.34323 15.992335,-10.82587 11.558901,-7.85082 14.656896,-10.17694 14.587639,-10.95607 -0.0484,-0.54334 -1.0155,-3.72857 -2.149256,-7.07783 -2.398941,-7.08705 -5.29615,-18.22867 -6.502656,-25.00611 l -0.844654,-4.74452 -6.518223,-0.99956 c -3.585087,-0.55051 -12.362241,-1.61157 -19.504773,-2.35891 l -12.9863607,-1.3594 -1.3635608,-6.3848 c -1.5879149,-7.43458 -2.52883657,-16.03479 -2.5870033,-23.64571 -0.06379713,-8.34494 2.6305034,-25.57918 4.2106464,-26.93344 0.2575475,-0.22042 9.0763244,-1.06209 19.5972724,-1.86993 l 19.12895,-1.4701 0.72081,-3.59016 c 1.988588,-9.9063 6.793255,-27.02162 9.27682,-33.04557 0.337103,-0.81809 -1.644101,-2.44607 -15.351361,-12.62095 l -15.73846,-11.68292 0.489189,-1.90682 c 1.012106,-3.9459 4.987987,-14.39041 7.177659,-18.85403 4.664756,-9.51057 12.931265,-21.15382 18.901122,-26.622314 l 2.145664,-1.965469 17.284364,8.282103 c 9.506346,4.55588 17.48465,8.30393 17.729444,8.32955 0.244794,0.0256 1.981004,-1.72024 3.858323,-3.87926 5.14626,-5.92019 11.942709,-12.679494 18.284599,-18.185822 5.18528,-4.501757 5.65032,-5.039565 5.23916,-6.060334 -0.24848,-0.616131 -3.75922,-8.694628 -7.80087,-17.952283 L 97.807697,48.438894 99.881809,46.373881 C 110.05028,36.250463 125.36362,26.912228 139.24293,22.372438 c 8.82276,-2.885771 6.58438,-4.510062 19.31207,14.013348 l 11.03917,16.064728 4.34403,-1.484353 c 8.8018,-3.007459 23.03337,-6.615673 30.98193,-7.855009 l 2.0378,-0.317703 0.78138,-4.692132 c 0.43011,-2.580678 1.43803,-11.298476 2.23937,-19.372769 l 1.45998,-14.6804113 1.78032,-0.5353474 c 8.64014,-2.59833668 22.10929,-3.9614161 33.36302,-3.37651469 8.42558,0.43792382 21.33889,3.07563559 22.03345,4.50073399 0.14171,0.2903507 0.92808,8.9250574 1.74738,19.1882074 0.82031,10.263252 1.61766,18.81825 1.77234,19.011291 0.15468,0.192938 2.65551,0.847719 5.55652,1.455034 7.6382,1.598763 19.01467,4.745237 25.8276,7.143331 3.25327,1.145224 5.96666,2.087567 6.03053,2.094231 0.0628,0.0066 5.30702,-7.026256 11.6539,-15.628617 11.5102,-15.600939 11.54314,-15.639691 12.96919,-15.239461 12.59895,3.539115 26.83252,10.580647 36.49854,18.056031 4.48272,3.467559 10.92042,9.42722 11.1709,10.341781 0.0988,0.361067 -3.46084,8.342787 -7.91165,17.737305 -4.4498,9.394516 -8.10823,17.255573 -8.12919,17.469117 -0.022,0.213442 1.42905,1.627059 3.22234,3.141142 4.71426,3.979122 13.61186,12.798409 18.07364,17.913429 2.11862,2.42865 4.36597,4.97313 4.99467,5.65488 l 1.14264,1.23842 17.79122,-7.70524 17.7912,-7.705332 2.05476,2.049842 c 3.35706,3.34782 10.19192,11.92854 13.09093,16.43215 5.49065,8.53049 10.67793,20.1191 12.75663,28.50403 l 0.68558,2.76387 -16.11667,11.01347 -16.11768,11.01246 2.16852,6.42888 c 2.46889,7.31772 5.26511,17.9447 6.75003,25.64583 0.55585,2.88484 1.10372,5.36577 1.21749,5.51238 0.11377,0.1466 8.83074,1.27839 19.37095,2.5168 l 19.16438,2.25028 0.88118,3.02938 c 1.52584,5.25097 3.14848,17.68124 3.27323,25.08301 0.17065,10.04981 -2.38308,27.18052 -4.28115,28.72444 -0.33231,0.26962 -8.81478,1.10103 -18.85003,1.84839 -10.03525,0.74735 -18.60753,1.42397 -19.04961,1.50291 -0.63568,0.1138 -1.04584,1.35836 -1.97592,6.00651 -1.53882,7.68576 -4.42285,18.22765 -6.98655,25.53305 -1.13266,3.22727 -1.90506,6.03727 -1.71745,6.24538 0.18761,0.20812 7.01151,5.31145 15.16265,11.34051 8.15215,6.03009 15.05887,11.24107 15.34926,11.5804 0.41016,0.48081 0.14371,1.82379 -1.19253,6.01574 -3.11955,9.79249 -8.10324,20.24315 -13.14083,27.55881 -4.45479,6.46886 -12.82549,15.79182 -14.06093,15.66163 -0.31235,-0.0328 -8.19506,-3.72139 -17.51778,-8.19732 -9.32273,-4.47591 -17.11162,-8.15426 -17.30921,-8.17475 -0.19759,-0.0215 -2.33817,2.20721 -4.75617,4.9516 -4.72823,5.3668 -12.16585,12.72757 -18.87797,18.68487 l -4.17836,3.70704 7.80386,17.81654 7.80287,17.81553 -2.04178,2.04933 c -3.33211,3.34311 -11.86846,10.13593 -16.35618,13.0136 -8.50342,5.45292 -20.09545,10.59521 -28.41724,12.60456 l -2.7583,0.66636 -10.46337,-15.24541 c -5.7551,-8.38492 -10.80965,-15.62985 -11.23277,-16.09835 -0.70754,-0.78631 -1.24443,-0.69917 -6.73408,1.09284 -9.00438,2.93918 -21.83885,6.11928 -29.06291,7.20186 -1.84718,0.2768 -2.09368,0.48082 -2.52678,2.09034 -0.26346,0.9811 -1.26738,9.6992 -2.22939,19.37379 l -1.75038,17.59 -2.21742,0.71659 c -3.47681,1.12462 -14.43815,2.80386 -20.93372,3.20573 -5.36889,0.33216 -20.28805,-0.45108 -22.88767,-1.2015 z m 21.8089,-106.41031 c 29.78543,-0.77707 57.24964,-10.86379 79.77107,-29.2975 31.53182,-25.80781 49.01466,-63.88596 48.01773,-104.58548 -0.59776,-24.39613 -8.0304,-48.23458 -21.56442,-69.15741 -3.70533,-5.72767 -12.31154,-16.2829 -17.17748,-21.06534 -21.99452,-21.61894 -49.2402,-34.53411 -79.47967,-37.67628 -35.25511,-3.66193 -68.77581,6.29357 -96.07936,28.53478 -22.41366,18.25738 -37.13622,41.5904 -44.47405,70.48605 -2.29226,9.02667 -3.97278,24.70471 -3.63348,33.88721 0.79435,21.42517 5.7521,40.35712 15.29138,58.38589 4.65737,8.80319 8.24695,14.22432 14.47407,21.86087 20.45771,25.08711 47.79519,40.96915 81.02548,47.07305 4.48073,0.82219 18.01974,1.70589 23.82873,1.55416 z"
       fill="#ffffff"
       fill-opacity="0.04"
       id="path2"
       style="stroke-width:1.01147" />
  </g>
  <defs
     id="defs9">
    <clipPath
       id="clip0">
      <rect
         width="477.957"
         height="465.35699"
         fill="#ffffff"
         transform="translate(0.0215454,0.321442)"
         id="rect6"
         x="0"
         y="0" />
    </clipPath>
  </defs>
</svg>
