<svg width="34" height="34" viewBox="0 0 34 34" fill="none" xmlns="http://www.w3.org/2000/svg">
<g clip-path="url(#clip0)">
<path d="M14.5668 29.7851L31.0864 0.816664L34 2.21809L16.4772 33.1282L14.5668 29.7851ZM10.9362 23.2544L24.0963 0.110963C24.0963 0.110963 27.1036 -0.144852 27.8955 0.120355C22.7553 8.99227 12.8098 26.7042 12.8098 26.7042L10.9362 23.2544ZM0 4.12577C0 4.12577 0.252106 4.22855 0.523748 4.35418C1.5573 4.83217 2.7613 5.19908 4.00687 5.41564L4.61139 5.52074L11.0451 16.8427L9.16402 20.133L0 4.12577ZM8.23909 5.65294C8.23909 5.65294 8.71699 5.58248 9.27389 5.52215C9.8308 5.46182 10.5735 5.34194 10.9243 5.25574C11.2751 5.16953 11.6476 5.09901 11.6476 5.09901L14.6867 10.3655L12.8092 13.7284L8.23909 5.65294Z" fill="#F57500"/>
</g>
<defs>
<clipPath id="clip0">
<rect width="34" height="33.1282" fill="white"/>
</clipPath>
</defs>
</svg>
